<?xml version="1.0" encoding="iso-8859-1"?>
<!-- Generator: Adobe Illustrator 16.0.0, SVG Export Plug-In . SVG Version: 6.00 Build 0)  -->
<!DOCTYPE svg PUBLIC "-//W3C//DTD SVG 1.1//EN" "http://www.w3.org/Graphics/SVG/1.1/DTD/svg11.dtd">
<svg version="1.1" id="Capa_1" xmlns="http://www.w3.org/2000/svg" xmlns:xlink="http://www.w3.org/1999/xlink" x="0px" y="0px"
	 width="533.333px" height="533.333px" viewBox="0 0 533.333 533.333" style="enable-background:new 0 0 533.333 533.333;"
	 xml:space="preserve">
<g>
	<path d="M444.432,0H88.901C40.006,0,0,40.009,0,88.902v355.531c0,48.926,40.006,88.899,88.901,88.899h355.531
		c48.895,0,88.901-39.974,88.901-88.9V88.902C533.333,40.009,493.327,0,444.432,0z M423.368,228.19
		c-17.686,99.634-116.514,184.009-146.238,203.286c-29.734,19.274-56.852-7.72-66.687-28.122
		c-11.258-23.284-45.005-149.447-53.837-159.906c-8.835-10.437-35.352,10.458-35.352,10.458l-12.86-16.862
		c0,0,53.845-64.296,94.812-72.333c43.439-8.524,43.375,66.701,53.823,108.459c10.104,40.398,16.896,63.517,25.718,63.517
		c8.837,0,25.718-22.532,44.193-57.068c18.508-34.57-0.803-65.107-36.965-43.38C304.445,149.441,441.048,128.573,423.368,228.19z"/>
</g>
<g>
</g>
<g>
</g>
<g>
</g>
<g>
</g>
<g>
</g>
<g>
</g>
<g>
</g>
<g>
</g>
<g>
</g>
<g>
</g>
<g>
</g>
<g>
</g>
<g>
</g>
<g>
</g>
<g>
</g>
</svg>
